<svg width="200" height="39" viewBox="0 0 200 39" fill="none" xmlns="http://www.w3.org/2000/svg">
<path d="M10.8549 1.53148C16.8714 1.53148 21.7099 6.11749 21.7099 11.8395C21.7099 17.5615 16.8714 22.1475 10.8549 22.1475C8.45676 22.1475 6.22687 21.3901 4.41771 20.17V29.9311H0V11.8395C0 6.11749 4.83845 1.53148 10.8549 1.53148ZM10.8549 18.0663C14.4312 18.0663 17.2922 15.3316 17.2922 11.8395C17.2922 8.38945 14.4312 5.65468 10.8549 5.65468C7.23663 5.65468 4.41771 8.38945 4.41771 11.8395C4.41771 15.3316 7.23663 18.0663 10.8549 18.0663Z" fill="#1A202C"/>
<path d="M33.7304 8.4736C39.3682 8.4736 43.0707 12.3023 43.0707 18.1084V29.9311H39.0317L38.9475 26.7755C37.0542 28.9634 34.4036 30.3518 31.1218 30.3518C26.62 30.3518 23.3803 27.4066 23.3803 23.578C23.3803 19.1603 26.9987 16.6779 33.3097 16.6779C35.0347 16.6779 36.8018 16.8041 38.6109 17.0987C38.2323 13.9431 36.1286 12.0078 32.8469 12.0078C30.5328 12.0078 28.345 12.8072 26.5358 14.448L24.6425 12.0078C26.62 9.9041 29.8596 8.4736 33.7304 8.4736ZM31.9212 27.1963C35.7499 27.1963 38.5688 24.1249 38.653 19.8755C36.8859 19.4968 35.1188 19.2444 33.4359 19.2444C29.6493 19.2444 27.5035 20.717 27.5035 23.3255C27.5035 25.5133 29.2706 27.1963 31.9212 27.1963Z" fill="#1A202C"/>
<path d="M51.4108 12.134C53.1779 10.1986 55.7864 8.89433 59.1523 8.89433V12.7651C54.3559 12.7651 51.6632 15.7102 51.6632 19.4127V29.9311H47.2455V8.89433H51.2425C51.3266 9.94617 51.3687 11.0401 51.4108 12.134Z" fill="#1A202C"/>
<path d="M63.8971 5.82297C62.5086 5.82297 61.583 4.81321 61.583 3.84552C61.583 2.83576 62.5086 1.82599 63.8971 1.82599C65.2855 1.82599 66.2111 2.83576 66.2111 3.84552C66.2111 4.81321 65.2855 5.82297 63.8971 5.82297ZM61.6672 29.9311V8.89433H66.0849V29.9311H61.6672Z" fill="#1A202C"/>
<path d="M82.7394 25.5975L84.7168 28.1219C83.2022 29.5945 81.0144 30.3518 78.6162 30.3518C74.1143 30.3518 70.496 27.4908 70.496 23.5359V3.00405H74.9137V8.89433H81.8979V12.5968H74.9137V23.0731C74.9137 25.5133 76.9332 26.7335 79.2894 26.7335C80.804 26.7335 81.9821 26.3127 82.7394 25.5975Z" fill="#1A202C"/>
<path d="M112.897 1.95222C121.059 1.95222 127.623 8.22116 127.623 15.9206C127.623 23.6621 121.059 29.9311 112.897 29.9311H104.987V1.95222H112.897ZM112.897 26.2286C118.619 26.2286 123.205 21.6426 123.205 15.9206C123.205 10.2407 118.619 5.65468 112.897 5.65468H109.405V26.2286H112.897Z" fill="#1A202C"/>
<path d="M151.509 17.898C151.636 18.8237 151.678 19.581 151.636 20.4225H134.301C134.806 23.9987 137.415 26.6072 141.117 26.6072C144.062 26.6072 146.166 25.303 147.428 23.3676L150.794 25.0926C148.859 28.2481 145.409 30.3518 140.781 30.3518C134.722 30.3518 129.842 25.4713 129.842 19.4127C129.842 13.3541 134.722 8.4736 140.781 8.4736C146.292 8.4736 150.878 12.5547 151.509 17.898ZM140.781 11.6291C137.331 11.6291 134.848 14.1114 134.301 17.7298H147.26C147.218 17.2249 147.134 16.6779 147.008 16.2572C146.25 13.4803 143.768 11.6291 140.781 11.6291Z" fill="#1A202C"/>
<path d="M163.772 8.4736C169.41 8.4736 173.112 12.3023 173.112 18.1084V29.9311H169.073L168.989 26.7755C167.096 28.9634 164.445 30.3518 161.163 30.3518C156.661 30.3518 153.422 27.4066 153.422 23.578C153.422 19.1603 157.04 16.6779 163.351 16.6779C165.076 16.6779 166.843 16.8041 168.652 17.0987C168.274 13.9431 166.17 12.0078 162.888 12.0078C160.574 12.0078 158.386 12.8072 156.577 14.448L154.684 12.0078C156.661 9.9041 159.901 8.4736 163.772 8.4736ZM161.963 27.1963C165.791 27.1963 168.61 24.1249 168.694 19.8755C166.927 19.4968 165.16 19.2444 163.477 19.2444C159.691 19.2444 157.545 20.717 157.545 23.3255C157.545 25.5133 159.312 27.1963 161.963 27.1963Z" fill="#1A202C"/>
<path d="M177.287 29.9311V0.479645H181.705V29.9311H177.287Z" fill="#1A202C"/>
<path d="M192.637 30.3518C188.724 30.3518 185.569 28.0798 184.727 24.6298L188.009 23.4517C188.724 25.5133 190.491 26.9859 192.343 26.9859C194.068 26.9859 195.498 25.6396 195.498 23.9146C195.498 22.442 194.278 21.306 191.796 20.5066C187.883 19.0761 185.905 16.8883 185.905 13.9431C185.905 10.7035 188.766 8.4736 192.343 8.4736C195.582 8.4736 198.191 10.1986 199.116 12.9755L195.961 14.5322C195.456 12.8913 194.068 11.7133 192.553 11.7133C191.207 11.7133 190.113 12.7651 190.113 13.9852C190.113 15.2895 191.122 16.2151 193.394 16.9724C197.56 18.445 200 20.4225 200 23.9146C200 27.4908 196.802 30.3518 192.637 30.3518Z" fill="#1A202C"/>
<path d="M102.351 8.731L99.0271 25.3921L98.1856 29.8098C97.0497 35.9946 92.3374 38.5611 86.0264 38.5611V35.111C90.36 35.111 93.0106 33.2598 93.6838 30.3567L93.7259 30.1885H93.3893C91.7063 30.1885 90.2312 29.5211 89.2215 28.4272C88.5483 27.6699 88.0039 26.6122 87.7935 25.4342L87.0362 21.6475L85.0167 11.4658L84.4697 8.731H89.0136L89.1399 9.40418L89.224 9.86699L91.2435 20.8482L91.3277 21.311L91.9588 24.7189C92.1271 25.4762 92.6319 25.8549 93.3472 25.8549H93.4313C94.1466 25.8549 94.6515 25.4762 94.8198 24.7189L95.4509 21.353L95.535 20.8902L97.5545 10.0774L97.6387 9.61365L97.807 8.731H102.351Z" fill="#1A202C"/>
<path d="M112.897 1.95222C121.059 1.95222 127.623 8.22116 127.623 15.9206C127.623 23.6621 121.059 29.9311 112.897 29.9311H104.987V1.95222H112.897ZM112.897 26.2286C118.619 26.2286 123.205 21.6426 123.205 15.9206C123.205 10.2407 118.619 5.65468 112.897 5.65468H109.405V26.2286H112.897Z" fill="#1A202C"/>
</svg>
